<mxfile host="app.diagrams.net" modified="2021-07-05T10:45:07.599Z" agent="5.0 (Windows NT 10.0; Win64; x64) AppleWebKit/537.36 (KHTML, like Gecko) Chrome/91.0.4472.114 Safari/537.36 OPR/77.0.4054.172" etag="cO_lQs1rIY_eGClZ9ZWh" version="14.7.6" type="github">
  <diagram id="V7XXbB53whegO2AbGc-u" name="Page-1">
    <mxGraphModel dx="1320" dy="804" grid="1" gridSize="10" guides="1" tooltips="1" connect="1" arrows="1" fold="1" page="1" pageScale="1" pageWidth="827" pageHeight="1169" math="0" shadow="0">
      <root>
        <mxCell id="0" />
        <mxCell id="1" parent="0" />
        <mxCell id="bYRwC555vleV3MO3xFH2-7" style="edgeStyle=orthogonalEdgeStyle;rounded=0;orthogonalLoop=1;jettySize=auto;html=1;exitX=0.25;exitY=1;exitDx=0;exitDy=0;entryX=0.457;entryY=-0.017;entryDx=0;entryDy=0;entryPerimeter=0;" edge="1" parent="1" source="bYRwC555vleV3MO3xFH2-1" target="bYRwC555vleV3MO3xFH2-2">
          <mxGeometry relative="1" as="geometry" />
        </mxCell>
        <mxCell id="bYRwC555vleV3MO3xFH2-8" style="edgeStyle=orthogonalEdgeStyle;rounded=0;orthogonalLoop=1;jettySize=auto;html=1;exitX=0.5;exitY=1;exitDx=0;exitDy=0;entryX=0.533;entryY=0;entryDx=0;entryDy=0;entryPerimeter=0;" edge="1" parent="1" source="bYRwC555vleV3MO3xFH2-1" target="bYRwC555vleV3MO3xFH2-3">
          <mxGeometry relative="1" as="geometry" />
        </mxCell>
        <mxCell id="bYRwC555vleV3MO3xFH2-9" style="edgeStyle=orthogonalEdgeStyle;rounded=0;orthogonalLoop=1;jettySize=auto;html=1;exitX=0.75;exitY=1;exitDx=0;exitDy=0;entryX=0.5;entryY=0;entryDx=0;entryDy=0;" edge="1" parent="1" source="bYRwC555vleV3MO3xFH2-1" target="bYRwC555vleV3MO3xFH2-4">
          <mxGeometry relative="1" as="geometry" />
        </mxCell>
        <mxCell id="bYRwC555vleV3MO3xFH2-1" value="LANDING PAGE&lt;br&gt;&lt;br&gt;ASKS WHAT TYPE OF CUSTOMER THEY ARE AND SENDS THEM TO RELEVANT STORE TO LOGIN AND SEE PRICES/PRODUCTS" style="rounded=1;whiteSpace=wrap;html=1;" vertex="1" parent="1">
          <mxGeometry x="230" y="40" width="380" height="220" as="geometry" />
        </mxCell>
        <mxCell id="bYRwC555vleV3MO3xFH2-33" value="" style="edgeStyle=orthogonalEdgeStyle;rounded=0;orthogonalLoop=1;jettySize=auto;html=1;" edge="1" parent="1" source="bYRwC555vleV3MO3xFH2-2" target="bYRwC555vleV3MO3xFH2-28">
          <mxGeometry relative="1" as="geometry" />
        </mxCell>
        <mxCell id="bYRwC555vleV3MO3xFH2-2" value="B2B.KILLIS.CO.UK" style="rounded=1;whiteSpace=wrap;html=1;" vertex="1" parent="1">
          <mxGeometry x="30" y="350" width="210" height="60" as="geometry" />
        </mxCell>
        <mxCell id="bYRwC555vleV3MO3xFH2-14" value="" style="edgeStyle=orthogonalEdgeStyle;rounded=0;orthogonalLoop=1;jettySize=auto;html=1;" edge="1" parent="1" source="bYRwC555vleV3MO3xFH2-3" target="bYRwC555vleV3MO3xFH2-11">
          <mxGeometry relative="1" as="geometry" />
        </mxCell>
        <mxCell id="bYRwC555vleV3MO3xFH2-3" value="RETAIL.KILLIS.CO.UK" style="rounded=1;whiteSpace=wrap;html=1;" vertex="1" parent="1">
          <mxGeometry x="309" y="350" width="210" height="60" as="geometry" />
        </mxCell>
        <mxCell id="bYRwC555vleV3MO3xFH2-31" value="" style="edgeStyle=orthogonalEdgeStyle;rounded=0;orthogonalLoop=1;jettySize=auto;html=1;" edge="1" parent="1" source="bYRwC555vleV3MO3xFH2-4" target="bYRwC555vleV3MO3xFH2-30">
          <mxGeometry relative="1" as="geometry" />
        </mxCell>
        <mxCell id="bYRwC555vleV3MO3xFH2-4" value="DISTRO.KILLIS.CO.UK" style="rounded=1;whiteSpace=wrap;html=1;" vertex="1" parent="1">
          <mxGeometry x="590" y="350" width="210" height="60" as="geometry" />
        </mxCell>
        <mxCell id="bYRwC555vleV3MO3xFH2-22" style="edgeStyle=orthogonalEdgeStyle;rounded=0;orthogonalLoop=1;jettySize=auto;html=1;exitX=0.25;exitY=1;exitDx=0;exitDy=0;entryX=0.5;entryY=0;entryDx=0;entryDy=0;" edge="1" parent="1" source="bYRwC555vleV3MO3xFH2-10" target="bYRwC555vleV3MO3xFH2-16">
          <mxGeometry relative="1" as="geometry" />
        </mxCell>
        <mxCell id="bYRwC555vleV3MO3xFH2-23" style="edgeStyle=orthogonalEdgeStyle;rounded=0;orthogonalLoop=1;jettySize=auto;html=1;exitX=0.75;exitY=1;exitDx=0;exitDy=0;entryX=0.5;entryY=0;entryDx=0;entryDy=0;" edge="1" parent="1" source="bYRwC555vleV3MO3xFH2-10" target="bYRwC555vleV3MO3xFH2-17">
          <mxGeometry relative="1" as="geometry" />
        </mxCell>
        <mxCell id="bYRwC555vleV3MO3xFH2-10" value="B2B PRODUCTS AND PRICES" style="rounded=1;whiteSpace=wrap;html=1;" vertex="1" parent="1">
          <mxGeometry x="30" y="560" width="210" height="140" as="geometry" />
        </mxCell>
        <mxCell id="bYRwC555vleV3MO3xFH2-24" style="edgeStyle=orthogonalEdgeStyle;rounded=0;orthogonalLoop=1;jettySize=auto;html=1;exitX=0.25;exitY=1;exitDx=0;exitDy=0;entryX=0.5;entryY=0;entryDx=0;entryDy=0;" edge="1" parent="1" source="bYRwC555vleV3MO3xFH2-11" target="bYRwC555vleV3MO3xFH2-18">
          <mxGeometry relative="1" as="geometry" />
        </mxCell>
        <mxCell id="bYRwC555vleV3MO3xFH2-25" style="edgeStyle=orthogonalEdgeStyle;rounded=0;orthogonalLoop=1;jettySize=auto;html=1;exitX=0.75;exitY=1;exitDx=0;exitDy=0;entryX=0.5;entryY=0;entryDx=0;entryDy=0;" edge="1" parent="1" source="bYRwC555vleV3MO3xFH2-11" target="bYRwC555vleV3MO3xFH2-19">
          <mxGeometry relative="1" as="geometry" />
        </mxCell>
        <mxCell id="bYRwC555vleV3MO3xFH2-11" value="RETAIL PRODUCTS AND PRICES" style="rounded=1;whiteSpace=wrap;html=1;" vertex="1" parent="1">
          <mxGeometry x="309" y="470" width="210" height="140" as="geometry" />
        </mxCell>
        <mxCell id="bYRwC555vleV3MO3xFH2-26" style="edgeStyle=orthogonalEdgeStyle;rounded=0;orthogonalLoop=1;jettySize=auto;html=1;exitX=0.25;exitY=1;exitDx=0;exitDy=0;entryX=0.5;entryY=0;entryDx=0;entryDy=0;" edge="1" parent="1" source="bYRwC555vleV3MO3xFH2-12" target="bYRwC555vleV3MO3xFH2-20">
          <mxGeometry relative="1" as="geometry" />
        </mxCell>
        <mxCell id="bYRwC555vleV3MO3xFH2-27" style="edgeStyle=orthogonalEdgeStyle;rounded=0;orthogonalLoop=1;jettySize=auto;html=1;exitX=0.75;exitY=1;exitDx=0;exitDy=0;entryX=0.5;entryY=0;entryDx=0;entryDy=0;" edge="1" parent="1" source="bYRwC555vleV3MO3xFH2-12" target="bYRwC555vleV3MO3xFH2-21">
          <mxGeometry relative="1" as="geometry" />
        </mxCell>
        <mxCell id="bYRwC555vleV3MO3xFH2-12" value="DISTRO PRODUCTS AND PRICES" style="rounded=1;whiteSpace=wrap;html=1;" vertex="1" parent="1">
          <mxGeometry x="590" y="560" width="210" height="140" as="geometry" />
        </mxCell>
        <mxCell id="bYRwC555vleV3MO3xFH2-16" value="INDUSTRY&lt;br&gt;BLOG" style="rounded=1;whiteSpace=wrap;html=1;" vertex="1" parent="1">
          <mxGeometry x="20" y="730" width="100" height="90" as="geometry" />
        </mxCell>
        <mxCell id="bYRwC555vleV3MO3xFH2-17" value="B2B SUPPORT" style="rounded=1;whiteSpace=wrap;html=1;" vertex="1" parent="1">
          <mxGeometry x="150" y="730" width="100" height="90" as="geometry" />
        </mxCell>
        <mxCell id="bYRwC555vleV3MO3xFH2-18" value="GENERAL BLOG" style="rounded=1;whiteSpace=wrap;html=1;" vertex="1" parent="1">
          <mxGeometry x="300" y="730" width="100" height="90" as="geometry" />
        </mxCell>
        <mxCell id="bYRwC555vleV3MO3xFH2-19" value="B2C SUPPORT" style="rounded=1;whiteSpace=wrap;html=1;" vertex="1" parent="1">
          <mxGeometry x="440" y="730" width="100" height="90" as="geometry" />
        </mxCell>
        <mxCell id="bYRwC555vleV3MO3xFH2-20" value="INDUSTRY BLOG" style="rounded=1;whiteSpace=wrap;html=1;" vertex="1" parent="1">
          <mxGeometry x="580" y="730" width="100" height="90" as="geometry" />
        </mxCell>
        <mxCell id="bYRwC555vleV3MO3xFH2-21" value="DISTRO SUPPORT" style="rounded=1;whiteSpace=wrap;html=1;" vertex="1" parent="1">
          <mxGeometry x="720" y="730" width="100" height="90" as="geometry" />
        </mxCell>
        <mxCell id="bYRwC555vleV3MO3xFH2-34" value="" style="edgeStyle=orthogonalEdgeStyle;rounded=0;orthogonalLoop=1;jettySize=auto;html=1;" edge="1" parent="1" source="bYRwC555vleV3MO3xFH2-28" target="bYRwC555vleV3MO3xFH2-10">
          <mxGeometry relative="1" as="geometry" />
        </mxCell>
        <mxCell id="bYRwC555vleV3MO3xFH2-36" style="edgeStyle=orthogonalEdgeStyle;rounded=0;orthogonalLoop=1;jettySize=auto;html=1;exitX=1;exitY=0.75;exitDx=0;exitDy=0;entryX=0.148;entryY=0;entryDx=0;entryDy=0;entryPerimeter=0;" edge="1" parent="1" source="bYRwC555vleV3MO3xFH2-28" target="bYRwC555vleV3MO3xFH2-35">
          <mxGeometry relative="1" as="geometry" />
        </mxCell>
        <mxCell id="bYRwC555vleV3MO3xFH2-28" value="LOGIN // CREDIT ACCOUNT, PAY ON CHECKOUT OR AGENT" style="rounded=1;whiteSpace=wrap;html=1;" vertex="1" parent="1">
          <mxGeometry x="30" y="450" width="210" height="80" as="geometry" />
        </mxCell>
        <mxCell id="bYRwC555vleV3MO3xFH2-32" value="" style="edgeStyle=orthogonalEdgeStyle;rounded=0;orthogonalLoop=1;jettySize=auto;html=1;" edge="1" parent="1" source="bYRwC555vleV3MO3xFH2-30" target="bYRwC555vleV3MO3xFH2-12">
          <mxGeometry relative="1" as="geometry" />
        </mxCell>
        <mxCell id="bYRwC555vleV3MO3xFH2-30" value="LOGIN // CREDIT ACCOUNT OR PAY ON CHECKOUT" style="rounded=1;whiteSpace=wrap;html=1;" vertex="1" parent="1">
          <mxGeometry x="590" y="450" width="210" height="80" as="geometry" />
        </mxCell>
        <mxCell id="bYRwC555vleV3MO3xFH2-35" value="FIELD AGENTS&lt;br&gt;&lt;br&gt;DASHBOARD TO SUBMIT ORDERS TO BE INVOICED TO CUSTOMER" style="rounded=1;whiteSpace=wrap;html=1;" vertex="1" parent="1">
          <mxGeometry x="230" y="890" width="330" height="100" as="geometry" />
        </mxCell>
      </root>
    </mxGraphModel>
  </diagram>
</mxfile>
